<?xml version="1.0" encoding="UTF-8"?>
<svg width="290px" height="150px" viewBox="0 0 290 150" version="1.1" xmlns="http://www.w3.org/2000/svg" xmlns:xlink="http://www.w3.org/1999/xlink">
    <!-- Generator: Sketch 62 (91390) - https://sketch.com -->
    <title>logo-MasterCard</title>
    <desc>Created with Sketch.</desc>
    <defs>
        <polygon id="path-1" points="0.2486 0.38855 2.4206 0.38855 2.4206 2.5 0.2486 2.5"></polygon>
        <polygon id="path-3" points="0 0.2285 63.16145 0.2285 63.16145 78.19285 0 78.19285"></polygon>
        <polygon id="path-5" points="0.1616 0.2285 63.3236 0.2285 63.3236 78.19295 0.1616 78.19295"></polygon>
    </defs>
    <g id="logo-MasterCard" stroke="none" stroke-width="1" fill="none" fill-rule="evenodd">
        <g id="Group-34" transform="translate(82.000000, 26.000000)">
            <path d="M21.66805,88.71185 C21.30555,88.34835 20.87555,88.06585 20.37755,87.86435 C19.87955,87.66285 19.33455,87.56185 18.74205,87.56185 C18.42855,87.56185 18.10305,87.58935 17.76505,87.64285 C17.42755,87.69735 17.09655,87.79235 16.77255,87.92935 C16.44855,88.06585 16.14055,88.25485 15.84755,88.49585 C15.55505,88.73735 15.30105,89.04135 15.08505,89.40835 C14.73655,88.83235 14.26455,88.38085 13.66905,88.05335 C13.07355,87.72585 12.39255,87.56185 11.62605,87.56185 C11.36855,87.56185 11.10205,87.58535 10.82655,87.63235 C10.55155,87.67935 10.27805,87.76035 10.00655,87.87535 C9.73455,87.99085 9.47505,88.14685 9.22805,88.34485 C8.98055,88.54285 8.75605,88.79285 8.55405,89.09535 L8.55405,87.83185 L6.38055,87.83185 L6.38055,98.17585 L8.57455,98.17585 L8.57455,92.44235 C8.57455,92.00335 8.64455,91.61285 8.78405,91.27085 C8.92305,90.92935 9.10955,90.64285 9.34305,90.41235 C9.57605,90.18185 9.84955,90.00785 10.16305,89.88885 C10.47655,89.76985 10.81105,89.71085 11.16655,89.71085 C11.90455,89.71085 12.47805,89.94485 12.88555,90.41235 C13.29305,90.88035 13.49655,91.54985 13.49655,92.42085 L13.49655,98.17585 L15.69105,98.17585 L15.69105,92.44235 C15.69105,92.00335 15.76055,91.61285 15.90005,91.27085 C16.03955,90.92935 16.22555,90.64285 16.45905,90.41235 C16.69255,90.18185 16.96605,90.00785 17.27955,89.88885 C17.59305,89.76985 17.92755,89.71085 18.28255,89.71085 C19.02105,89.71085 19.59405,89.94485 20.00155,90.41235 C20.40905,90.88035 20.61255,91.54985 20.61255,92.42085 L20.61255,98.17585 L22.80705,98.17585 L22.80705,91.67585 C22.80705,91.07135 22.70805,90.51685 22.50955,90.01335 C22.31105,89.50935 22.03055,89.07585 21.66805,88.71185" id="Fill-1" fill="#1D1D1B"></path>
            <path d="M33.1541,94.32075 C33.0031,94.72425 32.7906,95.07325 32.5171,95.36825 C32.2436,95.66375 31.9161,95.89525 31.5346,96.06475 C31.1531,96.23375 30.7281,96.31825 30.2606,96.31825 C29.7711,96.31825 29.3336,96.23025 28.9486,96.05425 C28.5636,95.87775 28.2376,95.64025 27.9716,95.34125 C27.7056,95.04275 27.5001,94.69175 27.3561,94.28875 C27.2121,93.88575 27.1401,93.45725 27.1401,93.00375 C27.1401,92.55025 27.2121,92.12225 27.3561,91.71875 C27.5001,91.31575 27.7056,90.96475 27.9716,90.66625 C28.2376,90.36775 28.5636,90.12975 28.9486,89.95375 C29.3336,89.77725 29.7711,89.68875 30.2606,89.68875 C30.7281,89.68875 31.1531,89.77375 31.5346,89.94275 C31.9161,90.11225 32.2436,90.34425 32.5171,90.63925 C32.7906,90.93475 33.0031,91.28375 33.1541,91.68625 C33.3056,92.08975 33.3811,92.52875 33.3811,93.00375 C33.3811,93.47875 33.3056,93.91775 33.1541,94.32075 L33.1541,94.32075 Z M33.2406,89.08425 C32.8806,88.62375 32.4346,88.25475 31.9016,87.97775 C31.3691,87.70075 30.7321,87.56175 29.9906,87.56175 C29.2636,87.56175 28.5871,87.69725 27.9611,87.96725 C27.3346,88.23675 26.7876,88.61325 26.3196,89.09525 C25.8521,89.57775 25.4846,90.15175 25.2181,90.81725 C24.9521,91.48325 24.8191,92.21175 24.8191,93.00375 C24.8191,93.79575 24.9521,94.52425 25.2181,95.18975 C25.4846,95.85575 25.8521,96.43025 26.3196,96.91225 C26.7876,97.39425 27.3346,97.77025 27.9611,98.04025 C28.5871,98.31025 29.2636,98.44525 29.9906,98.44525 C30.7321,98.44525 31.3691,98.30875 31.9016,98.03525 C32.4346,97.76175 32.8806,97.39425 33.2406,96.93425 L33.2406,98.17575 L35.4971,98.17575 L35.4971,87.83175 L33.2406,87.83175 L33.2406,89.08425 Z" id="Fill-3" fill="#1D1D1B"></path>
            <path d="M45.86995,92.98775 C45.23645,92.49475 44.35445,92.16525 43.22445,91.99925 L42.15595,91.83775 C41.91795,91.80175 41.69495,91.76075 41.48595,91.71325 C41.27745,91.66675 41.09745,91.60375 40.94645,91.52425 C40.79545,91.44525 40.67445,91.34475 40.58495,91.22225 C40.49495,91.10025 40.44995,90.94875 40.44995,90.76925 C40.44995,90.40175 40.62045,90.10475 40.96295,89.87775 C41.30445,89.65125 41.78495,89.53825 42.40395,89.53825 C42.72795,89.53825 43.04645,89.56675 43.35945,89.62425 C43.67245,89.68225 43.96945,89.75375 44.25045,89.84025 C44.53095,89.92675 44.78645,90.02175 45.01695,90.12625 C45.24695,90.23075 45.44195,90.33025 45.59995,90.42325 L46.57145,88.66375 C46.03195,88.31775 45.40195,88.04975 44.68245,87.85875 C43.96245,87.66825 43.19595,87.57275 42.38245,87.57275 C41.71995,87.57275 41.12645,87.65025 40.60095,87.80525 C40.07545,87.95975 39.62745,88.17925 39.25645,88.46375 C38.88595,88.74825 38.60145,89.09525 38.40345,89.50525 C38.20545,89.91575 38.10695,90.37625 38.10695,90.88775 C38.10695,91.72275 38.40345,92.39725 38.99745,92.91225 C39.59145,93.42675 40.46395,93.76325 41.61595,93.92175 L42.69545,94.06175 C43.31445,94.14825 43.76795,94.28725 44.05595,94.47725 C44.34395,94.66825 44.48795,94.91125 44.48795,95.20625 C44.48795,95.59525 44.28995,95.90275 43.89395,96.12925 C43.49795,96.35575 42.91145,96.46975 42.13395,96.46975 C41.70945,96.46975 41.32995,96.44075 40.99495,96.38325 C40.66045,96.32575 40.35445,96.24825 40.07745,96.15125 C39.79995,96.05425 39.55195,95.94225 39.33245,95.81625 C39.11245,95.69025 38.90945,95.55575 38.72245,95.41175 L37.67495,97.10625 C38.04895,97.38725 38.44145,97.61425 38.85195,97.78725 C39.26195,97.95925 39.66495,98.09425 40.06095,98.19175 C40.45695,98.28925 40.83095,98.35325 41.18395,98.38625 C41.53645,98.41825 41.84595,98.43475 42.11245,98.43475 C42.85395,98.43475 43.51795,98.35225 44.10445,98.18625 C44.69145,98.02075 45.18395,97.78875 45.58395,97.48975 C45.98345,97.19125 46.28895,96.83475 46.50145,96.42075 C46.71345,96.00725 46.81995,95.55175 46.81995,95.05525 C46.81995,94.16975 46.50345,93.48025 45.86995,92.98775" id="Fill-5" fill="#1D1D1B"></path>
            <path d="M60.6873,92.1186 C60.7448,91.7441 60.8458,91.4001 60.9898,91.0871 C61.1338,90.7746 61.3193,90.5041 61.5458,90.2776 C61.7728,90.0506 62.0423,89.8766 62.3553,89.7541 C62.6688,89.6316 63.0268,89.5701 63.4298,89.5701 C64.1493,89.5701 64.7363,89.7936 65.1898,90.2396 C65.6433,90.6861 65.9308,91.3126 66.0533,92.1186 L60.6873,92.1186 Z M66.9983,89.0681 C66.5698,88.5896 66.0553,88.2191 65.4543,87.9561 C64.8533,87.6931 64.1928,87.5621 63.4733,87.5621 C62.7098,87.5621 62.0138,87.6931 61.3843,87.9561 C60.7538,88.2191 60.2123,88.5896 59.7588,89.0681 C59.3053,89.5466 58.9528,90.1211 58.7008,90.7906 C58.4488,91.4601 58.3228,92.1976 58.3228,93.0041 C58.3228,93.8241 58.4523,94.5691 58.7118,95.2386 C58.9708,95.9081 59.3338,96.4806 59.8018,96.9556 C60.2703,97.4306 60.8278,97.7976 61.4758,98.0566 C62.1238,98.3161 62.8363,98.4451 63.6138,98.4451 C64.3978,98.4451 65.1448,98.3376 65.8538,98.1216 C66.5623,97.9056 67.2343,97.5276 67.8673,96.9876 L66.7448,95.3791 C66.3128,95.7246 65.8358,95.9931 65.3138,96.1836 C64.7918,96.3746 64.2718,96.4696 63.7538,96.4696 C63.3863,96.4696 63.0338,96.4196 62.6958,96.3181 C62.3573,96.2176 62.0518,96.0616 61.7778,95.8486 C61.5043,95.6366 61.2708,95.3646 61.0758,95.0336 C60.8818,94.7026 60.7483,94.3031 60.6768,93.8351 L68.3208,93.8351 C68.3353,93.7056 68.3458,93.5686 68.3533,93.4246 C68.3603,93.2806 68.3643,93.1371 68.3643,92.9931 C68.3643,92.1871 68.2433,91.4506 68.0023,90.7851 C67.7608,90.1191 67.4268,89.5466 66.9983,89.0681 L66.9983,89.0681 Z" id="Fill-7" fill="#1D1D1B"></path>
            <path d="M96.8924,94.32075 C96.7409,94.72425 96.5284,95.07325 96.2554,95.36825 C95.9814,95.66375 95.6539,95.89525 95.2724,96.06475 C94.8909,96.23375 94.4664,96.31825 93.9984,96.31825 C93.5089,96.31825 93.0714,96.23025 92.6869,96.05425 C92.3014,95.87775 91.9759,95.64025 91.7094,95.34125 C91.4434,95.04275 91.2379,94.69175 91.0939,94.28875 C90.9499,93.88575 90.8784,93.45725 90.8784,93.00375 C90.8784,92.55025 90.9499,92.12225 91.0939,91.71875 C91.2379,91.31575 91.4434,90.96475 91.7094,90.66625 C91.9759,90.36775 92.3014,90.12975 92.6869,89.95375 C93.0714,89.77725 93.5089,89.68875 93.9984,89.68875 C94.4664,89.68875 94.8909,89.77375 95.2724,89.94275 C95.6539,90.11225 95.9814,90.34425 96.2554,90.63925 C96.5284,90.93475 96.7409,91.28375 96.8924,91.68625 C97.0434,92.08975 97.1189,92.52875 97.1189,93.00375 C97.1189,93.47875 97.0434,93.91775 96.8924,94.32075 L96.8924,94.32075 Z M96.9784,89.08425 C96.6184,88.62375 96.1724,88.25475 95.6394,87.97775 C95.1074,87.70075 94.4699,87.56175 93.7289,87.56175 C93.0014,87.56175 92.3249,87.69725 91.6989,87.96725 C91.0724,88.23675 90.5259,88.61325 90.0574,89.09525 C89.5899,89.57775 89.2224,90.15175 88.9564,90.81725 C88.6899,91.48325 88.5569,92.21175 88.5569,93.00375 C88.5569,93.79575 88.6899,94.52425 88.9564,95.18975 C89.2224,95.85575 89.5899,96.43025 90.0574,96.91225 C90.5259,97.39425 91.0724,97.77025 91.6989,98.04025 C92.3249,98.31025 93.0014,98.44525 93.7289,98.44525 C94.4699,98.44525 95.1074,98.30875 95.6394,98.03525 C96.1724,97.76175 96.6184,97.39425 96.9784,96.93425 L96.9784,98.17575 L99.2354,98.17575 L99.2354,87.83175 L96.9784,87.83175 L96.9784,89.08425 Z" id="Fill-9" fill="#1D1D1B"></path>
            <path d="M55.54595,96.1132 C55.18245,96.2497 54.82445,96.3182 54.47145,96.3182 C54.24095,96.3182 54.02695,96.2827 53.82895,96.2102 C53.63095,96.1387 53.45845,96.0252 53.31095,95.8707 C53.16345,95.7157 53.04595,95.5162 52.95995,95.2712 C52.87345,95.0262 52.83045,94.7312 52.83045,94.3857 L52.83045,89.8832 L56.45445,89.8832 L56.45445,87.8322 L52.83045,87.8322 L52.83045,84.7012 L50.56295,84.7012 L50.56295,87.8322 L48.50095,87.8322 L48.50095,89.8832 L50.56295,89.8832 L50.56295,94.4292 C50.56295,95.8037 50.88845,96.8167 51.53995,97.4682 C52.19145,98.1202 53.10395,98.4452 54.27695,98.4452 C54.93195,98.4452 55.52045,98.3447 56.04245,98.1432 C56.38745,98.0102 56.70745,97.8577 57.00695,97.6897 L56.23545,95.8002 C56.01695,95.9167 55.78795,96.0217 55.54595,96.1132" id="Fill-11" fill="#1D1D1B"></path>
            <path d="M75.91875,87.56195 C75.28525,87.56195 74.71325,87.67695 74.20175,87.90745 C73.69075,88.13795 73.26275,88.69245 72.91725,89.18945 L72.91725,87.83195 L70.86825,87.83195 L70.86825,98.17595 L72.93875,98.17595 L72.93875,92.48545 C72.93875,92.04695 73.00025,91.65445 73.12225,91.30845 C73.24475,90.96345 73.41375,90.67195 73.63025,90.43395 C73.84575,90.19695 74.10475,90.01645 74.40775,89.89445 C74.70975,89.77195 75.04025,89.71095 75.40075,89.71095 C75.67425,89.71095 75.96925,89.74295 76.28575,89.80795 C76.44775,89.84095 76.59825,89.88195 76.73975,89.92945 L77.40675,87.77045 C77.22575,87.71345 77.04225,87.66445 76.85275,87.63245 C76.57525,87.58545 76.26425,87.56195 75.91875,87.56195" id="Fill-13" fill="#1D1D1B"></path>
            <path d="M107.2879,87.56195 C106.6544,87.56195 106.0824,87.67695 105.5709,87.90745 C105.0599,88.13795 104.6319,88.69245 104.2864,89.18945 L104.2864,87.83195 L102.2374,87.83195 L102.2374,98.17595 L104.3079,98.17595 L104.3079,92.48545 C104.3079,92.04695 104.3689,91.65445 104.4914,91.30845 C104.6134,90.96345 104.7829,90.67195 104.9989,90.43395 C105.2149,90.19695 105.4739,90.01645 105.7764,89.89445 C106.0784,89.77195 106.4094,89.71095 106.7694,89.71095 C107.0434,89.71095 107.3384,89.74295 107.6549,89.80795 C107.8164,89.84095 107.9669,89.88195 108.1084,89.92945 L108.7759,87.77045 C108.5944,87.71345 108.4109,87.66445 108.2219,87.63245 C107.9444,87.58545 107.6329,87.56195 107.2879,87.56195" id="Fill-15" fill="#1D1D1B"></path>
            <path d="M117.7415,94.32075 C117.59,94.72425 117.3775,95.07325 117.1045,95.36825 C116.831,95.66375 116.503,95.89525 116.122,96.06475 C115.74,96.23375 115.3155,96.31825 114.848,96.31825 C114.358,96.31825 113.921,96.23025 113.536,96.05425 C113.1505,95.87775 112.825,95.64025 112.5585,95.34125 C112.2925,95.04275 112.087,94.69175 111.9435,94.28875 C111.799,93.88575 111.7275,93.45725 111.7275,93.00375 C111.7275,92.55025 111.799,92.12225 111.9435,91.71875 C112.087,91.31575 112.2925,90.96475 112.5585,90.66625 C112.825,90.36775 113.1505,90.12975 113.536,89.95375 C113.921,89.77725 114.358,89.68875 114.848,89.68875 C115.3155,89.68875 115.74,89.77375 116.122,89.94275 C116.503,90.11225 116.831,90.34425 117.1045,90.63925 C117.3775,90.93475 117.59,91.28375 117.7415,91.68625 C117.8925,92.08975 117.968,92.52875 117.968,93.00375 C117.968,93.47875 117.8925,93.91775 117.7415,94.32075 L117.7415,94.32075 Z M117.8275,83.62775 L117.8275,89.08425 C117.4675,88.62375 117.0215,88.25475 116.489,87.97775 C115.9565,87.70075 115.319,87.56175 114.578,87.56175 C113.851,87.56175 113.174,87.69725 112.548,87.96725 C111.9215,88.23675 111.375,88.61325 110.907,89.09525 C110.439,89.57775 110.0715,90.15175 109.8055,90.81725 C109.539,91.48325 109.406,92.21175 109.406,93.00375 C109.406,93.79575 109.539,94.52425 109.8055,95.18975 C110.0715,95.85575 110.439,96.43025 110.907,96.91225 C111.375,97.39425 111.9215,97.77025 112.548,98.04025 C113.174,98.31025 113.851,98.44525 114.578,98.44525 C115.319,98.44525 115.9565,98.30875 116.489,98.03525 C117.0215,97.76175 117.4675,97.39425 117.8275,96.93425 L117.8275,98.17575 L120.0845,98.17575 L120.0845,83.62775 L117.8275,83.62775 Z" id="Fill-17" fill="#1D1D1B"></path>
            <path d="M81.31965,90.61225 C81.60715,90.32075 81.94915,90.09425 82.34515,89.93225 C82.74115,89.76975 83.16915,89.68875 83.63015,89.68875 C84.13665,89.68875 84.60765,89.76975 85.04315,89.93225 C85.46465,90.08825 85.82915,90.30725 86.13865,90.58425 L87.22515,88.77775 C86.81765,88.45275 86.35915,88.18575 85.84865,87.97775 C85.16815,87.70075 84.42865,87.56175 83.63015,87.56175 C82.83065,87.56175 82.09115,87.70075 81.41115,87.97775 C80.73065,88.25475 80.14415,88.63625 79.65115,89.12275 C79.15865,89.60825 78.77115,90.18225 78.49065,90.84425 C78.20965,91.50675 78.06915,92.22675 78.06915,93.00375 C78.06915,93.78125 78.20965,94.50075 78.49065,95.16325 C78.77115,95.82575 79.15865,96.39925 79.65115,96.88525 C80.14415,97.37125 80.73065,97.75275 81.41115,98.02975 C82.09115,98.30675 82.83065,98.44525 83.63015,98.44525 C84.42865,98.44525 85.16815,98.30675 85.84865,98.02975 C86.35915,97.82175 86.81765,97.55525 87.22515,97.22975 L86.13865,95.42275 C85.82915,95.70075 85.46465,95.91875 85.04315,96.07575 C84.60765,96.23725 84.13665,96.31825 83.63015,96.31825 C83.16915,96.31825 82.74115,96.23725 82.34515,96.07575 C81.94915,95.91375 81.60715,95.68675 81.31965,95.39475 C81.03165,95.10375 80.80465,94.75475 80.63915,94.34825 C80.47365,93.94125 80.39115,93.49325 80.39115,93.00375 C80.39115,92.51425 80.47365,92.06625 80.63915,91.65975 C80.80465,91.25275 81.03165,90.90375 81.31965,90.61225" id="Fill-19" fill="#1D1D1B"></path>
            <g id="Group-23" transform="translate(123.500000, 96.271500)">
                <mask id="mask-2" fill="white">
                    <use xlink:href="#path-1"></use>
                </mask>
                <g id="Clip-22"></g>
                <path d="M1.1971,1.20355 L1.1971,1.37505 L1.3946,1.37505 C1.4356,1.37505 1.4666,1.36855 1.4886,1.35655 C1.5106,1.34355 1.5211,1.32155 1.5211,1.29055 C1.5211,1.26055 1.5106,1.23855 1.4886,1.22455 C1.4666,1.21105 1.4356,1.20355 1.3946,1.20355 L1.1971,1.20355 Z M1.3991,0.97555 C1.5276,0.97555 1.6251,1.00455 1.6916,1.06155 C1.7581,1.11855 1.7911,1.19455 1.7911,1.29055 C1.7911,1.36555 1.7676,1.42755 1.7201,1.47705 C1.6721,1.52655 1.6031,1.55905 1.5121,1.57455 L1.8031,1.91055 L1.4886,1.91055 L1.2281,1.58405 L1.1971,1.58405 L1.1971,1.91055 L0.9346,1.91055 L0.9346,0.97555 L1.3991,0.97555 Z M1.3381,2.20655 C1.4431,2.20655 1.5416,2.18655 1.6341,2.14655 C1.7266,2.10655 1.8071,2.05205 1.8746,1.98355 C1.9431,1.91455 1.9966,1.83405 2.0361,1.74155 C2.0751,1.64905 2.0946,1.54955 2.0946,1.44305 C2.0946,1.33855 2.0751,1.23905 2.0361,1.14605 C1.9966,1.05255 1.9431,0.97205 1.8746,0.90405 C1.8071,0.83605 1.7266,0.78205 1.6341,0.74205 C1.5416,0.70205 1.4431,0.68205 1.3381,0.68205 C1.2301,0.68205 1.1296,0.70205 1.0366,0.74205 C0.9431,0.78205 0.8621,0.83605 0.7931,0.90405 C0.7246,0.97205 0.6701,1.05255 0.6311,1.14605 C0.5921,1.23905 0.5726,1.33855 0.5726,1.44305 C0.5726,1.54955 0.5921,1.64905 0.6311,1.74155 C0.6701,1.83405 0.7246,1.91455 0.7931,1.98355 C0.8621,2.05205 0.9431,2.10655 1.0366,2.14655 C1.1296,2.18655 1.2301,2.20655 1.3381,2.20655 L1.3381,2.20655 Z M1.3381,0.38855 C1.4886,0.38855 1.6291,0.41655 1.7611,0.47205 C1.8926,0.52755 2.0071,0.60305 2.1046,0.69855 C2.2031,0.79455 2.2801,0.90555 2.3361,1.03305 C2.3931,1.16105 2.4206,1.29705 2.4206,1.44305 C2.4206,1.58755 2.3931,1.72355 2.3361,1.85205 C2.2801,1.98055 2.2031,2.09255 2.1046,2.18905 C2.0071,2.28505 1.8926,2.36105 1.7611,2.41655 C1.6291,2.47205 1.4886,2.50005 1.3381,2.50005 C1.1851,2.50005 1.0411,2.47205 0.9086,2.41655 C0.7751,2.36105 0.6601,2.28505 0.5616,2.18905 C0.4641,2.09255 0.3876,1.98055 0.3321,1.85205 C0.2761,1.72355 0.2486,1.58755 0.2486,1.44305 C0.2486,1.29705 0.2761,1.16105 0.3321,1.03305 C0.3876,0.90555 0.4641,0.79455 0.5616,0.69855 C0.6601,0.60305 0.7751,0.52755 0.9086,0.47205 C1.0411,0.41655 1.1851,0.38855 1.3381,0.38855 L1.3381,0.38855 Z" id="Fill-21" fill="#1D1D1B" mask="url(#mask-2)"></path>
            </g>
            <g id="Group-26" transform="translate(0.000000, 0.271500)">
                <mask id="mask-4" fill="white">
                    <use xlink:href="#path-3"></use>
                </mask>
                <g id="Clip-25"></g>
                <path d="M48.35945,39.21035 C48.35945,26.81885 54.14845,15.78535 63.16145,8.64535 C56.51545,3.38085 48.11945,0.22835 38.98195,0.22835 C17.45295,0.22835 -5e-05,17.68135 -5e-05,39.21035 C-5e-05,60.73985 17.45295,78.19285 38.98195,78.19285 C48.11945,78.19285 56.51545,75.04035 63.16145,69.77535 C54.14845,62.63535 48.35945,51.60235 48.35945,39.21035" id="Fill-24" fill="#E30E17" mask="url(#mask-4)"></path>
            </g>
            <path d="M48.35945,39.48185 C48.35945,51.87385 54.14845,62.90685 63.16145,70.04685 C72.17495,62.90685 77.96395,51.87385 77.96395,39.48185 C77.96395,27.09035 72.17495,16.05685 63.16145,8.91685 C54.14845,16.05685 48.35945,27.09035 48.35945,39.48185" id="Fill-27" fill="#EA600A"></path>
            <path d="M126.12385,60.5673 L126.12385,59.5578 L125.79685,60.4288 L125.43485,60.4288 L125.10785,59.5603 L125.10785,60.5673 L124.76685,60.5673 L124.76685,59.1128 L125.25585,59.1128 L125.61685,60.0443 L125.97585,59.1128 L126.46485,59.1128 L126.46485,60.5673 L126.12385,60.5673 Z M123.68035,60.5673 L123.68035,59.4263 L123.21885,59.4263 L123.21885,59.1128 L124.48285,59.1128 L124.48285,59.4263 L124.02135,59.4263 L124.02135,60.5673 L123.68035,60.5673 Z" id="Fill-29" fill="#F59F00"></path>
            <g id="Group-33" transform="translate(63.000000, 0.271500)">
                <mask id="mask-6" fill="white">
                    <use xlink:href="#path-5"></use>
                </mask>
                <g id="Clip-32"></g>
                <path d="M24.3416,0.22845 C15.2041,0.22845 6.8081,3.38095 0.1616,8.64545 C9.1751,15.78545 14.9641,26.81895 14.9641,39.21045 C14.9641,51.60245 9.1751,62.63495 0.1616,69.77545 C6.8081,75.04045 15.2041,78.19295 24.3416,78.19295 C45.8706,78.19295 63.3236,60.73945 63.3236,39.21045 C63.3236,17.68145 45.8706,0.22845 24.3416,0.22845" id="Fill-31" fill="#F59F00" mask="url(#mask-6)"></path>
            </g>
        </g>
    </g>
</svg>