<svg width="290" height="150" viewBox="0 0 290 150" fill="none" xmlns="http://www.w3.org/2000/svg">
<path d="M23.5625 48.75H48.2353C48.2339 57.2579 48.2353 65.7657 48.2339 74.2736H23.5625V48.75Z" fill="#F25022"/>
<path d="M50.7548 48.75H75.4276C75.4276 57.2579 75.4291 65.7657 75.4261 74.2736C67.2033 74.2721 58.9791 74.2736 50.7562 74.2736C50.7533 65.7657 50.7548 57.2579 50.7548 48.75Z" fill="#80BA01"/>
<mask id="mask0_508_318" style="mask-type:alpha" maskUnits="userSpaceOnUse" x="238" y="57" width="29" height="36">
<path d="M238.979 57.1045H266.437V92.212H238.979V57.1045Z" fill="white"/>
</mask>
<g mask="url(#mask0_508_318)">
<path d="M246.054 58.4745C248.329 56.943 251.268 56.8005 253.831 57.5302C253.853 59.106 253.834 60.6835 253.842 62.2609C252.623 61.7059 251.19 61.3442 249.909 61.8884C248.892 62.3053 248.287 63.3845 248.129 64.4637C247.938 65.8326 248.062 67.22 248.03 68.5965C250.632 68.6027 253.234 68.5981 255.836 68.5996C255.855 66.852 255.815 65.103 255.858 63.3554C257.628 62.8342 259.378 62.2501 261.138 61.7013C261.153 64.0038 261.117 66.3079 261.157 68.6119C262.916 68.5858 264.677 68.6057 266.437 68.5996V73.082C264.671 73.0069 262.903 73.062 261.137 73.0559C261.144 75.6328 261.138 78.2097 261.14 80.7881C261.168 82.2153 261.066 83.6501 261.227 85.0727C261.325 85.9112 261.62 86.8404 262.38 87.274C263.653 88.0114 265.268 87.6895 266.437 86.8801V91.4069C264.912 92.0921 263.208 92.3006 261.559 92.1795C259.994 92.0599 258.373 91.4713 257.352 90.1836C256.172 88.7288 255.869 86.759 255.845 84.9164C255.831 80.9613 255.846 77.0063 255.839 73.0498C253.235 73.0482 250.632 73.0467 248.03 73.0513C248.027 79.2582 248.028 85.4651 248.028 91.6721H242.692C242.692 85.4667 242.685 79.2628 242.695 73.0574C241.458 73.0329 240.219 73.0636 238.981 73.0375C238.986 71.5643 238.992 70.0896 238.979 68.6149C240.21 68.5858 241.443 68.5981 242.677 68.6073C242.767 66.6482 242.479 64.6323 243.045 62.7238C243.523 61.0008 244.587 59.4464 246.054 58.4745Z" fill="#777777"/>
</g>
<path d="M131.808 58.7959C132.884 58.6273 134.048 59.0075 134.761 59.8782C135.597 60.8317 135.751 62.3493 135.132 63.4637C134.447 64.7208 132.915 65.3048 131.58 65.0028C130.194 64.7453 129.04 63.4132 129.102 61.9277C129.062 60.3641 130.326 58.9707 131.808 58.7959Z" fill="#777777"/>
<path d="M90.9134 59.4799H98.6739C101.089 65.8248 103.523 72.1635 105.941 78.5084C106.559 80.095 107.137 81.7 107.784 83.2744C110.892 75.346 114.044 67.4375 117.127 59.4983C119.615 59.4569 122.105 59.4891 124.594 59.483C124.589 70.2121 124.592 80.9412 124.593 91.6703C122.797 91.6657 121.002 91.6857 119.208 91.6596C119.227 83.7419 119.206 75.8242 119.217 67.905C119.22 67.5494 119.208 67.1937 119.184 66.8381C119.079 67.0036 118.986 67.1753 118.904 67.3532C115.82 75.4579 112.677 83.5396 109.611 91.6519C108.334 91.6995 107.055 91.655 105.776 91.6765C102.595 83.5718 99.4533 75.4487 96.2881 67.3378C96.2051 67.1692 96.1162 67.0052 96.0199 66.8473C95.9547 70.3163 96.0095 73.7885 95.9917 77.2575C95.9932 82.0618 95.9888 86.8661 95.9932 91.6703C94.2995 91.6749 92.6057 91.6703 90.9134 91.6719C90.9116 80.9412 90.9105 70.2106 90.9134 59.4799Z" fill="#777777"/>
<path d="M146.492 68.5779C149.068 67.8191 151.845 67.8498 154.418 68.6025C154.949 68.7557 155.463 68.9688 155.94 69.2586C155.911 71.0168 155.94 72.7767 155.924 74.5365C154.204 73.1768 152.021 72.3153 149.834 72.6004C148.097 72.7629 146.44 73.6949 145.401 75.1466C144.066 76.9463 143.758 79.3362 143.988 81.5375C144.16 83.2605 144.849 84.982 146.144 86.1239C147.489 87.3612 149.376 87.7996 151.136 87.6616C152.876 87.4547 154.518 86.6926 155.924 85.6289C155.939 87.2952 155.917 88.9616 155.936 90.6279C153.755 91.9707 151.139 92.3172 148.642 92.1899C146.088 92.0504 143.54 91.0494 141.691 89.1915C139.681 87.1879 138.591 84.3305 138.462 81.4685C138.331 78.493 138.917 75.3888 140.572 72.9039C141.959 70.7838 144.128 69.2831 146.492 68.5779Z" fill="#777777"/>
<path d="M190.284 69.1129C192.346 70.0756 194.018 71.8554 194.944 73.9862C195.932 76.2549 196.172 78.8027 196.005 81.2631C195.841 83.6652 195.111 86.072 193.659 87.9805C192.173 90.0071 189.932 91.3806 187.533 91.8911C185.482 92.3325 183.337 92.331 181.286 91.8849C178.832 91.3423 176.56 89.8691 175.121 87.726C173.432 85.2426 172.952 82.0848 173.167 79.1093C173.312 76.5845 174.071 74.0398 175.63 72.0593C177.337 69.8411 179.955 68.5319 182.645 68.1809C185.205 67.8436 187.907 67.9939 190.284 69.1129ZM188.7 74.1287C187.547 72.9223 185.839 72.4532 184.236 72.5621C182.96 72.6356 181.671 73.0817 180.726 73.9954C179.422 75.2171 178.826 77.0383 178.664 78.8088C178.487 80.7557 178.615 82.8083 179.475 84.5835C180.143 85.9616 181.372 87.0439 182.819 87.4378C184.242 87.8195 185.791 87.7873 187.169 87.2401C188.347 86.7649 189.28 85.7623 189.79 84.5758C190.561 82.8161 190.636 80.8369 190.541 78.9376C190.409 77.2025 189.932 75.3827 188.7 74.1287Z" fill="#777777"/>
<path d="M204.782 68.2284C207.249 67.7792 209.832 68.1088 212.167 69.024C212.17 70.7163 212.167 72.4072 212.169 74.098C210.537 72.9376 208.544 72.3137 206.564 72.3857C205.567 72.4256 204.47 72.8625 204.015 73.8436C203.654 74.8139 203.904 76.0863 204.789 76.6673C206.302 77.7143 208.107 78.1588 209.675 79.097C210.909 79.8144 212.106 80.7526 212.732 82.1046C213.907 84.6371 213.409 87.9835 211.343 89.8721C209.371 91.7791 206.53 92.3064 203.918 92.2052C202.062 92.0811 200.198 91.7024 198.493 90.9176C198.5 89.1378 198.482 87.3596 198.502 85.5814C199.936 86.659 201.591 87.4301 203.343 87.7428C204.562 87.9482 205.889 87.9574 207.025 87.3933C208.113 86.8338 208.308 85.2349 207.662 84.2569C207.058 83.5027 206.17 83.0873 205.333 82.6795C203.761 81.9483 202.108 81.3366 200.727 80.2406C199.757 79.4572 199.022 78.3535 198.734 77.1087C198.308 75.2738 198.441 73.2059 199.472 71.6024C200.65 69.7337 202.697 68.6131 204.782 68.2284Z" fill="#777777"/>
<path d="M233.097 69.2861C235.216 70.3821 236.86 72.3627 237.681 74.6529C238.322 76.4051 238.548 78.2967 238.511 80.1623C238.515 82.9492 237.788 85.8097 236.097 88.0202C234.514 90.1602 232.093 91.5506 229.537 91.9875C227.037 92.406 224.396 92.2972 222.021 91.3299C219.614 90.3503 217.614 88.3514 216.6 85.8894C215.543 83.38 215.432 80.5563 215.761 77.8752C216.107 75.194 217.28 72.5727 219.281 70.7899C220.92 69.3014 223.03 68.4583 225.177 68.1731C227.84 67.8313 230.667 68.0168 233.097 69.2861ZM230.893 73.8711C229.734 72.818 228.124 72.4577 226.617 72.5666C225.141 72.6524 223.677 73.3101 222.723 74.4996C221.677 75.7735 221.228 77.4552 221.106 79.0939C220.98 80.7863 221.106 82.5384 221.739 84.1204C222.265 85.448 223.264 86.6023 224.553 87.1664C225.748 87.6983 227.093 87.7934 228.37 87.5956C229.56 87.4147 230.713 86.8261 231.488 85.8603C232.257 84.8992 232.663 83.6881 232.868 82.474C233.126 80.8445 233.128 79.1659 232.823 77.5441C232.552 76.1614 231.961 74.7878 230.893 73.8711Z" fill="#777777"/>
<path d="M167.872 68.9546C169.345 68.0394 171.216 67.9628 172.824 68.5223C172.817 70.3634 172.824 72.2044 172.82 74.0455C171.768 73.3403 170.455 73.0384 169.213 73.1687C167.698 73.3465 166.498 74.5498 165.876 75.9295C165.2 77.3904 165.073 79.0431 165.116 80.6403C165.116 84.3178 165.117 87.9953 165.116 91.6729H159.855C159.851 83.9868 159.861 76.2989 159.851 68.6127C161.607 68.5897 163.363 68.5989 165.119 68.6081C165.111 69.928 165.119 71.2479 165.114 72.5693C165.685 71.1329 166.534 69.7379 167.872 68.9546Z" fill="#777777"/>
<path d="M129.586 68.6085C131.356 68.6008 133.127 68.5824 134.896 68.6177C134.875 76.3023 134.894 83.9886 134.887 91.6732H129.589C129.585 83.9855 129.591 76.2977 129.586 68.6085Z" fill="#777777"/>
<mask id="mask1_508_318" style="mask-type:alpha" maskUnits="userSpaceOnUse" x="23" y="76" width="26" height="27">
<path d="M23.5625 76.8787H48.236V102.404H23.5625V76.8787Z" fill="white"/>
</mask>
<g mask="url(#mask1_508_318)">
<path d="M23.5625 76.8787C31.7868 76.8817 40.0111 76.8771 48.2353 76.8817C48.2368 85.3896 48.2353 93.8959 48.2353 102.404H23.5625V76.8787Z" fill="#02A4EF"/>
</g>
<path d="M50.7569 76.8819C58.9797 76.8789 67.2039 76.8804 75.4282 76.8804V102.404H50.7554C50.7569 93.8961 50.7539 85.3883 50.7569 76.8819Z" fill="#FFB902"/>
</svg>
