<?xml version="1.0" encoding="UTF-8"?>
<svg width="290px" height="150px" viewBox="0 0 290 150" version="1.1" xmlns="http://www.w3.org/2000/svg" xmlns:xlink="http://www.w3.org/1999/xlink">
    <!-- Generator: Sketch 62 (91390) - https://sketch.com -->
    <title>logo-visa</title>
    <desc>Created with Sketch.</desc>
    <defs>
        <path d="M112.9576,0.00024 C99.156,0.00024 89.4432,7.33704 89.3616,17.84264 L89.3616,17.84264 C89.2728,25.61304 96.2944,29.94904 101.584,32.53144 L101.584,32.53144 C107.0264,35.17544 108.8528,36.87464 108.832,39.24024 L108.832,39.24024 C108.7928,42.86104 104.4912,44.45944 100.4712,44.52184 L100.4712,44.52184 C93.4528,44.62984 89.3808,42.62264 86.1336,41.11384 L86.1336,41.11384 L83.6032,52.93864 C86.8656,54.43544 92.8872,55.74104 99.1312,55.80664 L99.1312,55.80664 C113.8008,55.80664 123.396,48.56104 123.4408,37.33944 L123.4408,37.33944 C123.5008,23.09384 103.7416,22.30904 103.8776,15.94504 L103.8776,15.94504 C103.9208,14.00824 105.7648,11.94904 109.8008,11.42264 L109.8008,11.42264 C111.8016,11.16104 117.3136,10.96104 123.5664,13.83864 L123.5664,13.83864 L126.0184,2.39304 C122.6592,1.17384 118.3368,0.00024 112.9576,0.00024 Z M149.608,0.98584 C146.9272,0.98584 144.6672,2.54584 143.6656,4.94584 L143.6656,4.94584 L122.7128,54.96264 L137.3736,54.96264 L140.2864,46.90024 L158.2,46.90024 L159.8864,54.96264 L172.8,54.96264 L161.5272,0.98584 L149.608,0.98584 Z M151.656,15.57064 L155.8848,35.83704 L144.3056,35.83704 L151.656,15.57064 Z M71.6008,0.98584 L60.0512,54.96264 L74.0128,54.96264 L85.5592,0.98584 L71.6008,0.98584 Z M50.94,0.98584 L36.408,37.72344 L30.5288,6.48984 C29.8408,3.00184 27.1184,0.98584 24.0904,0.98584 L24.0904,0.98584 L0.3312,0.98584 L0,2.55464 C4.876,3.61544 10.4184,5.32344 13.7744,7.14424 L13.7744,7.14424 C15.8296,8.26104 16.4168,9.23304 17.0928,11.88664 L17.0928,11.88664 L28.2256,54.96264 L42.9856,54.96264 L65.6088,0.98584 L50.94,0.98584 Z" id="path-1"></path>
        <linearGradient x1="10.3402676%" y1="54.9377102%" x2="93.0895143%" y2="44.6877158%" id="linearGradient-3">
            <stop stop-color="#12175A" offset="0%"></stop>
            <stop stop-color="#00299B" offset="100%"></stop>
        </linearGradient>
    </defs>
    <g id="logo-visa" stroke="none" stroke-width="1" fill="none" fill-rule="evenodd">
        <g id="Group-3" transform="translate(56.000000, 47.000000)">
            <mask id="mask-2" fill="white">
                <use xlink:href="#path-1"></use>
            </mask>
            <g id="Clip-2"></g>
            <path d="M112.9576,0.00024 C99.156,0.00024 89.4432,7.33704 89.3616,17.84264 L89.3616,17.84264 C89.2728,25.61304 96.2944,29.94904 101.584,32.53144 L101.584,32.53144 C107.0264,35.17544 108.8528,36.87464 108.832,39.24024 L108.832,39.24024 C108.7928,42.86104 104.4912,44.45944 100.4712,44.52184 L100.4712,44.52184 C93.4528,44.62984 89.3808,42.62264 86.1336,41.11384 L86.1336,41.11384 L83.6032,52.93864 C86.8656,54.43544 92.8872,55.74104 99.1312,55.80664 L99.1312,55.80664 C113.8008,55.80664 123.396,48.56104 123.4408,37.33944 L123.4408,37.33944 C123.5008,23.09384 103.7416,22.30904 103.8776,15.94504 L103.8776,15.94504 C103.9208,14.00824 105.7648,11.94904 109.8008,11.42264 L109.8008,11.42264 C111.8016,11.16104 117.3136,10.96104 123.5664,13.83864 L123.5664,13.83864 L126.0184,2.39304 C122.6592,1.17384 118.3368,0.00024 112.9576,0.00024 Z M149.608,0.98584 C146.9272,0.98584 144.6672,2.54584 143.6656,4.94584 L143.6656,4.94584 L122.7128,54.96264 L137.3736,54.96264 L140.2864,46.90024 L158.2,46.90024 L159.8864,54.96264 L172.8,54.96264 L161.5272,0.98584 L149.608,0.98584 Z M151.656,15.57064 L155.8848,35.83704 L144.3056,35.83704 L151.656,15.57064 Z M71.6008,0.98584 L60.0512,54.96264 L74.0128,54.96264 L85.5592,0.98584 L71.6008,0.98584 Z M50.94,0.98584 L36.408,37.72344 L30.5288,6.48984 C29.8408,3.00184 27.1184,0.98584 24.0904,0.98584 L24.0904,0.98584 L0.3312,0.98584 L0,2.55464 C4.876,3.61544 10.4184,5.32344 13.7744,7.14424 L13.7744,7.14424 C15.8296,8.26104 16.4168,9.23304 17.0928,11.88664 L17.0928,11.88664 L28.2256,54.96264 L42.9856,54.96264 L65.6088,0.98584 L50.94,0.98584 Z" id="Fill-1" fill="url(#linearGradient-3)" mask="url(#mask-2)"></path>
        </g>
    </g>
</svg>