<svg width="290" height="150" viewBox="0 0 290 150" fill="none" xmlns="http://www.w3.org/2000/svg">
<mask id="mask0_508_342" style="mask-type:alpha" maskUnits="userSpaceOnUse" x="12" y="54" width="100" height="43">
<path d="M12.6875 54.375H111.376V96.0914H12.6875V54.375Z" fill="#717074"/>
</mask>
<g mask="url(#mask0_508_342)">
<path d="M32.8948 81.6151C34.8663 76.808 36.7318 72.2506 38.6053 67.6953C39.3788 65.8177 40.1255 63.9261 40.9563 62.0773C45.017 53.0444 55.6869 52.2374 61.7239 58.4617C62.8197 59.5911 63.3282 59.2866 64.2762 58.5116C68.9332 54.7091 74.0939 53.3961 79.8633 55.2999C81.7395 55.9195 83.4353 56.8991 84.6814 58.4567C85.5807 59.5817 86.0796 59.3642 87.072 58.5505C92.0807 54.4484 97.6729 53.0788 103.677 55.7531C108.601 57.9458 111.24 62.0701 111.317 67.6665C111.421 75.0186 111.362 82.3734 111.336 89.7266C111.321 93.7815 108.814 96.2183 105.002 95.9759C102.129 95.7951 100.104 93.32 100.077 89.7626C100.03 83.7247 100.063 77.6867 100.062 71.6476C100.062 71.1611 100.085 70.6713 100.051 70.1876C99.8312 67.1057 97.9529 64.9845 95.1865 64.6716C91.9908 64.3105 89.5119 65.8598 88.6875 68.7343C88.4311 69.6335 88.4386 70.5609 88.4376 71.4845C88.4327 77.4737 88.4483 83.4628 88.4311 89.4531C88.4215 92.8202 86.9163 95.1028 84.2966 95.8167C80.906 96.7436 77.8736 94.7605 77.2827 91.1938C77.1483 90.3828 77.1012 89.5485 77.1007 88.7253C77.0851 82.6879 77.0991 76.6488 77.0889 70.6098C77.0841 68.2467 76.2951 66.277 74.1218 65.2413C71.8634 64.1652 69.6264 64.3421 67.5987 65.8942C65.8901 67.2044 65.4683 69.1304 65.4672 71.2038C65.4635 77.4382 65.4945 83.672 65.4544 89.9046C65.4303 93.7288 63.1307 96.038 59.5421 95.9803C56.3587 95.931 54.2052 93.4004 54.1919 89.5835C54.1662 82.2808 54.1844 74.9758 54.1844 67.6704C54.1844 67.2815 54.1801 66.8916 54.1822 66.5016C54.1903 65.6196 53.8118 64.9762 52.9923 64.7382C52.0828 64.4769 51.4421 64.9179 51.0615 65.7749C49.9047 68.3793 48.7576 70.9892 47.604 73.5963C45.2386 78.9425 42.8897 84.2977 40.4916 89.6262C39.9788 90.7683 39.3627 91.8788 38.6604 92.9056C35.7816 97.1125 30.1573 97.153 27.1415 93.0271C25.7101 91.0651 24.8815 88.7775 23.9014 86.5709C20.3883 78.6685 16.8773 70.7651 13.3755 62.8572C11.8857 59.4951 12.8669 56.3644 15.8196 54.9837C18.9002 53.5426 21.9256 54.9182 23.3463 58.4007C26.3043 65.6529 29.2634 72.9046 32.2257 80.1551C32.389 80.5545 32.5849 80.9423 32.8948 81.6151Z" fill="#717074"/>
</g>
<path d="M141.361 65.3258C139.922 69.5776 138.487 73.8178 137.052 78.0568C135.374 83.0081 133.701 87.9622 132.018 92.9129C131.384 94.7795 130.471 95.5833 128.953 95.6454C127.41 95.7098 126.203 94.8649 125.581 93.0749C121.684 81.8743 117.808 70.6676 113.952 59.4548C113.31 57.5876 113.949 56.0561 115.476 55.4726C117.195 54.8158 118.764 55.6196 119.448 57.6575C122.411 66.4657 125.335 75.2883 128.274 84.1048C128.471 84.6944 128.682 85.2796 128.981 86.1405C130.405 81.8932 131.736 77.9242 133.067 73.9553C134.852 68.6307 136.63 63.3044 138.428 57.9848C139.145 55.8636 139.855 55.2928 141.608 55.3178C143.283 55.3405 144.074 56.009 144.762 58.0763C147.651 66.7564 150.529 75.4419 153.414 84.1236C153.611 84.7183 153.827 85.3057 154.118 86.1333C155.612 81.7057 157.035 77.4988 158.451 73.2919C160.197 68.1082 161.943 62.925 163.683 57.7385C164.068 56.5853 164.61 55.5902 165.897 55.3572C168.238 54.935 169.87 56.8199 169.112 59.1891C168.185 62.0941 167.122 64.9525 166.122 67.8336C163.265 76.0627 160.41 84.2928 157.556 92.523C157.475 92.7515 157.397 92.9795 157.306 93.203C156.631 94.8633 155.502 95.6931 153.987 95.6454C152.523 95.6005 151.518 94.7945 150.935 93.0771C149.57 89.0439 148.237 84.9962 146.885 80.9563C145.258 76.0898 143.633 71.2229 141.989 66.3625C141.873 66.0197 141.901 65.5621 141.361 65.3258Z" fill="#717074"/>
<path d="M186.466 75.217C183.607 75.2741 180.67 75.5582 178.115 77.3931C174.233 80.1811 174.063 86.0687 177.808 89.0369C180.697 91.3295 184.031 91.664 187.459 90.975C191.962 90.0687 195.549 87.8571 196.946 82.9585C197.394 81.3942 197.133 79.7623 197.228 78.1658C197.284 77.2239 196.979 76.7935 196.058 76.5644C192.942 75.7867 189.796 75.3158 186.466 75.217ZM197.151 89.4413C194.47 92.6558 191.469 94.7276 187.753 95.4909C182.131 96.6463 176.838 95.9901 172.532 91.6878C167.337 86.4947 168.503 77.3254 174.717 73.4719C177.445 71.7806 180.456 71.0945 183.577 70.8998C187.728 70.6396 191.84 71.0107 195.857 72.1401C197.027 72.469 197.174 72.1218 197.166 71.0318C197.137 64.9633 193.633 61.0299 187.781 60.6266C184.135 60.3759 180.573 60.6815 177.175 62.283C175.747 62.9547 174.285 62.2874 173.753 60.9489C173.235 59.6481 173.668 58.1832 174.96 57.6207C181.631 54.7196 188.437 54.1726 195.202 57.0943C199.742 59.0546 201.885 63.0535 202.447 67.9509C203.034 73.0886 202.617 78.2596 202.699 83.415C202.745 86.4331 202.729 89.4529 202.697 92.4705C202.679 94.3493 201.754 95.5075 200.249 95.6789C198.539 95.8759 197.245 94.7365 197.158 92.9038C197.112 91.8859 197.151 90.8608 197.151 89.4413Z" fill="#717074"/>
<path d="M248.119 73.2983H256.573C260.465 73.2983 260.465 73.2983 259.391 69.4137C257.45 62.4011 251.391 58.6535 245.108 60.6543C239.869 62.3212 237.072 67.3735 236.326 72.4823C236.179 73.478 236.879 73.2922 237.409 73.2933C240.977 73.3016 244.548 73.2983 248.119 73.2983ZM250.017 77.7537C245.836 77.7537 241.652 77.7819 237.471 77.7331C236.432 77.7209 236.189 78.0366 236.393 79.0827C237.401 84.2548 239.885 88.2903 244.862 90.0093C250.235 91.867 255.143 90.5873 259.43 86.7776C260.123 86.1619 260.798 85.5345 261.766 85.6294C262.769 85.7248 263.552 86.2451 263.909 87.268C264.285 88.3474 263.989 89.2821 263.216 90.0592C260.499 92.7989 257.369 94.7825 253.604 95.5148C247.238 96.754 241.446 95.553 236.57 90.9229C233.334 87.8554 231.473 83.9625 230.83 79.4965C229.832 72.5577 231.103 66.1703 235.81 60.9123C240.507 55.662 246.421 54.0433 253.032 55.8201C259.625 57.5912 263.274 62.4854 265.025 69.0759C265.488 70.8165 265.699 72.6027 265.681 74.4182C265.658 76.8234 264.792 77.7426 262.423 77.7498C258.287 77.7614 254.152 77.7537 250.017 77.7537Z" fill="#717074"/>
<path d="M215.245 64.4364C217.124 60.8552 219.572 58.2609 222.907 56.64C224.577 55.8279 226.312 55.2605 228.19 55.317C229.759 55.3642 230.812 56.3033 230.973 57.816C231.158 59.5627 230.377 60.8097 228.8 61.213C228.118 61.3877 227.411 61.4543 226.728 61.6257C220.408 63.2127 216.193 68.3354 215.428 75.4645C214.825 81.0897 215.288 86.7399 215.155 92.3757C215.104 94.5585 213.592 95.9236 211.687 95.4932C210.235 95.1648 209.48 94.1475 209.476 92.4062C209.461 88.1261 209.471 83.8433 209.471 79.5626C209.471 72.605 209.469 65.6479 209.473 58.6913C209.473 56.5856 210.574 55.2072 212.236 55.1954C214.017 55.1834 215.146 56.5352 215.155 58.7046C215.162 60.4558 215.162 62.207 215.166 63.9582C215.166 64.0059 215.182 64.0547 215.245 64.4364Z" fill="#717074"/>
<mask id="mask1_508_342" style="mask-type:alpha" maskUnits="userSpaceOnUse" x="266" y="55" width="10" height="11">
<path d="M266.112 55.1821H275.5V65.0082H266.112V55.1821Z" fill="#717074"/>
</mask>
<g mask="url(#mask1_508_342)">
<path d="M270.839 56.1989C268.755 56.1879 267.096 57.8659 267.046 60.0409C266.993 62.1798 268.811 64.1069 270.846 64.0725C272.797 64.0403 274.614 62.1105 274.594 60.0952C274.571 57.9408 272.904 56.2106 270.839 56.1989ZM275.5 60.0908C275.502 62.9087 273.508 65.0049 270.824 65.0083C268.129 65.0105 266.103 62.9076 266.112 60.118C266.123 57.3272 268.173 55.1739 270.812 55.1822C273.508 55.1922 275.498 57.2734 275.5 60.0908Z" fill="#717074"/>
</g>
<path d="M271.739 59.213C271.588 58.7471 271.234 58.6256 270.777 58.6201C270.319 58.614 270.1 58.7859 270.103 59.2824C270.103 59.8038 270.374 59.9375 270.807 59.9125C271.25 59.8859 271.629 59.7705 271.739 59.213ZM270.447 57.6521C272.735 57.6687 273.265 58.4936 272.329 60.4129C272.079 60.9276 272.382 61.1179 272.547 61.4191C272.721 61.7375 272.872 62.0726 272.519 62.3116C272.2 62.5269 271.898 62.3499 271.672 62.0526C271.498 61.824 271.324 61.5938 271.133 61.3797C270.679 60.8694 270.224 60.4345 270.1 61.6005C270.057 62.0171 269.965 62.4115 269.46 62.3582C268.914 62.2994 269.027 61.8179 269.017 61.4518C269.002 60.7723 269.061 60.0884 269.002 59.4139C268.891 58.123 269.123 57.2444 270.447 57.6521Z" fill="#717074"/>
<path d="M271.738 59.2132C271.627 59.7708 271.249 59.8863 270.805 59.9129C270.372 59.9379 270.101 59.8041 270.101 59.2826C270.098 58.7859 270.316 58.6139 270.775 58.62C271.233 58.6256 271.586 58.7471 271.738 59.2132Z" fill="#717074"/>
</svg>
