<?xml version="1.0" encoding="UTF-8"?>
<svg width="290px" height="150px" viewBox="0 0 290 150" version="1.1" xmlns="http://www.w3.org/2000/svg" xmlns:xlink="http://www.w3.org/1999/xlink">
    <!-- Generator: Sketch 62 (91390) - https://sketch.com -->
    <title>logo-polycom</title>
    <desc>Created with Sketch.</desc>
    <defs>
        <linearGradient x1="18.2263449%" y1="86.6250015%" x2="81.3671629%" y2="13.0363478%" id="linearGradient-1">
            <stop stop-color="#94A9BB" offset="0%"></stop>
            <stop stop-color="#94A9BB" offset="12.2699%"></stop>
            <stop stop-color="#94A9BB" stop-opacity="0.52941179" offset="100%"></stop>
        </linearGradient>
        <linearGradient x1="0.850870435%" y1="44.8028043%" x2="99.1470712%" y2="55.1956279%" id="linearGradient-2">
            <stop stop-color="#D11C23" offset="0%"></stop>
            <stop stop-color="#D11C23" offset="55.17738%"></stop>
            <stop stop-color="#A91317" offset="100%"></stop>
        </linearGradient>
        <linearGradient x1="24.1081942%" y1="65.3828014%" x2="80.2102911%" y2="32.0778474%" id="linearGradient-3">
            <stop stop-color="#94A9BB" offset="0%"></stop>
            <stop stop-color="#94A9BB" offset="12.2699%"></stop>
            <stop stop-color="#94A9BB" stop-opacity="0.52941179" offset="100%"></stop>
        </linearGradient>
        <linearGradient x1="55.6092082%" y1="96.2005671%" x2="45.1901027%" y2="10.4822638%" id="linearGradient-4">
            <stop stop-color="#94A9BB" offset="0%"></stop>
            <stop stop-color="#94A9BB" stop-opacity="0.57254905" offset="100%"></stop>
        </linearGradient>
        <linearGradient x1="14.653865%" y1="74.9760331%" x2="79.6631399%" y2="29.0422893%" id="linearGradient-5">
            <stop stop-color="#94A9BB" offset="0%"></stop>
            <stop stop-color="#94A9BB" offset="12.2699%"></stop>
            <stop stop-color="#94A9BB" stop-opacity="0.52941179" offset="100%"></stop>
        </linearGradient>
        <linearGradient x1="64.6971025%" y1="97.8703392%" x2="32.6249548%" y2="3.04397209%" id="linearGradient-6">
            <stop stop-color="#94A9BB" offset="0%"></stop>
            <stop stop-color="#94A9BB" stop-opacity="0.57254905" offset="100%"></stop>
        </linearGradient>
    </defs>
    <g id="logo-polycom" stroke="none" stroke-width="1" fill="none" fill-rule="evenodd">
        <g id="img-tab-logo-polycom" transform="translate(30.000000, 45.000000)" fill-rule="nonzero">
            <path d="M20.6350379,7.1535001 C11.3935138,7.18852895 3.13432046,13.4495549 1.13006112,22.6469122 C0.833077402,24.0145603 0.688393027,25.3791623 0.683824046,26.7254885 L0.683824046,26.8275291 C0.705145954,35.9578747 7.2220348,44.221637 16.7270367,46.292908 C27.6682214,48.6763927 38.4236011,41.9569458 40.7507349,31.2822848 C41.0461957,29.9237747 41.19088,28.5683105 41.196972,27.2326454 L41.196972,27.0453172 C41.1497592,17.9317245 34.6374394,9.7014681 25.1522364,7.63324303 C23.6840707,7.3134144 22.220474,7.15654608 20.7766763,7.1535001 L20.6350379,7.1535001 Z M18.98259,44.0601997 C10.8970179,42.2996193 5.84829473,33.9657993 7.70482372,25.44922 C9.5613527,16.9280719 17.6195109,11.4529105 25.7035599,13.2150139 C33.7845631,14.9771173 38.8348092,23.3109373 36.9782803,31.8275165 C35.3562923,39.2688623 28.9977947,44.3906892 22.0285768,44.3906892 C21.0203552,44.3906892 20.0029955,44.2825567 18.98259,44.0601997" id="path50" fill="url(#linearGradient-1)" opacity="0.6"></path>
            <path d="M37.8547158,0.898328151 C24.3476064,0.899094675 13.3981703,11.9137854 13.3975827,25.5012166 C13.3981705,39.0886476 24.3476065,50.1033381 37.8547158,50.1041047 C51.3618244,50.1033372 62.3112594,39.088647 62.3118473,25.5012166 C62.3112597,11.913786 51.3618245,0.899095522 37.8547158,0.898328151 Z M39.8298478,5.18472178 C50.5299022,5.18572025 59.2033948,13.1254614 59.2033948,22.9192661 C59.2033948,32.7130706 50.529902,40.6528116 39.8298478,40.6538101 C34.6909579,40.6538101 29.7624533,38.7857028 26.1286205,35.4598028 C22.4947877,32.133903 20.4533264,27.6229137 20.4533264,22.9192661 C20.4533264,18.2156183 22.4947876,13.704629 26.1286205,10.3787291 C29.7624533,7.05282922 34.6909577,5.18472178 39.8298478,5.18472178" id="path52" fill="url(#linearGradient-2)"></path>
            <path d="M32.9773766,39.5049264 C30.1720226,42.5250223 26.2914354,44.3480454 22.1778302,44.3922122 C23.0642123,45.126295 23.9901923,45.8070731 24.9710002,46.4101786 C29.2582266,45.610607 33.1525208,43.4510023 36.0431623,40.3060209 C34.9846819,40.1232617 33.9597073,39.8491229 32.9773766,39.5034033" id="path54" fill="url(#linearGradient-3)" opacity="0.6"></path>
            <path d="M20.7386014,19.8948631 C17.5174703,22.4352161 15.1248476,25.8314914 13.7450156,29.6267911 C14.4044718,33.548499 15.9838159,37.1503786 18.2500301,40.2085493 C18.269829,40.2374862 18.291151,40.2649 18.3124729,40.2907909 C17.139768,35.659368 18.1997714,30.8055879 20.9502975,26.8975868 C20.9091767,26.7346265 20.8665329,26.5670972 20.8299811,26.4071829 C20.584779,25.2755988 20.4538017,24.1105089 20.4538017,22.911913 C20.4538017,21.8808464 20.5512732,20.8756708 20.7401245,19.8948631 L20.7401245,19.8796331" id="path56" fill="url(#linearGradient-4)" opacity="0.98"></path>
            <path d="M21.544265,7.17329902 C19.2506368,9.2369551 17.3423261,11.7346643 15.960971,14.5324032 C18.3535937,13.2926865 21.062999,12.7017652 23.828755,12.9332602 C25.0623797,11.2686283 26.606695,9.81112362 28.3733675,8.61709678 C27.3514389,8.21198053 26.2701136,7.88149095 25.1552824,7.63476602 C23.9688705,7.38042612 22.7824586,7.22508079 21.6097536,7.17329902" id="path58" fill="url(#linearGradient-5)" opacity="0.6"></path>
            <path d="M34.1698804,15.2131813 C31.4696131,15.2131813 28.7343169,15.7188151 26.0873543,16.7849104 C24.1166008,17.5768671 22.3255606,18.6292555 20.7401245,19.89334 L20.7401245,19.90857 C20.5512732,20.8893778 20.4538017,21.9006454 20.4538017,22.9256199 C20.4538017,24.1257388 20.584779,25.2908287 20.8299811,26.4193669 C20.8665329,26.5808042 20.9091767,26.7498565 20.9502975,26.9112937 C22.9073441,24.1181238 25.7355428,21.8107888 29.2171058,20.4065889 C38.2819627,16.7574966 48.3809321,20.6319919 51.7817763,29.0724214 C52.7016643,31.3447276 53.0397689,33.7236433 52.8631017,36.0462083 C52.4777843,41.0705636 49.7135513,45.8634239 45.2572725,48.9520545 C44.1211195,49.7440111 42.8707418,50.4263122 41.5320305,50.9639289 C32.4641278,54.614544 22.3605895,50.7339568 18.964314,42.2996193 C18.6977902,41.6401631 18.4800022,40.9730921 18.3124729,40.3060209 C18.291151,40.2786071 18.269829,40.2511931 18.2500301,40.2222562 C15.9838159,37.1701775 14.4044718,33.5622061 13.7450156,29.6389749 C11.8854407,34.742526 11.8427968,40.5725447 14.0526603,46.067505 C17.6042809,54.8902059 25.9563769,60.3014015 34.730342,60.3882121 L35.1385042,60.3882121 C37.7732828,60.3638442 40.4385213,59.8582104 43.0184722,58.818006 C50.5298757,55.793341 55.4262996,49.0144973 56.5137169,41.4086681 C56.926448,38.5393486 56.7939476,35.5481894 56.0552958,32.6027201 C55.796387,31.5777455 55.4674204,30.5527711 55.0607811,29.5430264 C51.4756546,20.6502678 43.0199951,15.2207962 34.1698804,15.2207962" id="path60" fill="url(#linearGradient-6)" opacity="0.98"></path>
            <path d="M144.867286,25.2472711 L137.788413,43.3434789 L130.706493,25.2472711 L126.682746,25.2472711 L135.146019,45.3934281 L135.474987,46.1594938 L135.944067,47.2986929 C135.51763,48.7379216 134.815529,49.5527232 134.750042,49.6227808 C134.696737,49.6715167 134.660185,49.7065454 134.623633,49.7735572 C134.623633,49.7735572 134.612971,49.7887871 134.612971,49.7903101 C133.999206,50.5670368 133.326042,51.0650556 132.675724,51.2584758 C132.237103,51.3924992 131.780204,51.4122981 131.286754,51.2858897 C130.712585,51.1366363 130.088159,50.8015777 129.431748,50.2883289 L127.39246,52.9246305 C129.057091,54.2359279 130.593792,54.6715041 131.8396,54.7050099 C132.524948,54.7248088 133.146329,54.6060153 133.642825,54.453716 C135.066824,54.0211858 136.346139,53.0449471 137.433556,51.5798274 C137.497522,51.5158616 137.546257,51.450373 137.594992,51.3727003 C137.71074,51.2173549 137.83258,51.0452567 137.943758,50.8594515 C138.033615,50.725428 138.120425,50.5898816 138.20419,50.4269213 C138.312323,50.2152253 138.434162,50.0218051 138.522495,49.802494 C138.568186,49.7400514 138.601692,49.6715167 138.639766,49.586229 C138.66718,49.5024644 138.725054,49.3928089 138.772267,49.2968602 L138.921521,48.8871751 L139.559654,47.4190094 L148.889512,25.2472711" id="path62" fill="#000000"></path>
            <path d="M76.9171074,20.4745143 L85.1656397,20.4745143 C87.7075158,20.4745143 90.4717489,22.88389 90.4717489,26.0075494 C90.4717489,29.1708068 87.7075158,31.5360156 85.1656397,31.4903258 L76.149671,31.5360156 L76.149671,34.9231529 L85.1656397,34.9231529 C90.1153684,34.9231529 94.4863595,31.3106126 94.4863595,26.0075494 C94.4863595,20.6085378 90.0270347,17.0416872 85.1656397,17.0416872 L73.0380433,17.0416872 L73.0380433,46.7857487 L76.9171074,46.7857487" id="path64" fill="#000000"></path>
            <path d="M106.233969,27.6098909 C101.818811,27.6098909 99.0104115,31.3564547 99.0104115,35.9924467 C99.0104115,40.6314846 101.818811,44.4206922 106.233969,44.4206922 C110.691771,44.4206922 113.457527,40.6756514 113.457527,35.9924467 C113.457527,31.3564547 110.691771,27.6098909 106.233969,27.6098909 M106.233969,47.3646385 C99.9013626,47.3646385 95.3095375,42.2824094 95.3095375,35.9924467 C95.3095375,29.7527426 99.9013626,24.6248237 106.233969,24.6248237 C112.60922,24.6248237 117.156878,29.7527426 117.156878,35.9924467 C117.156878,42.2824094 112.60922,47.3646385 106.233969,47.3646385" id="path66" fill="#000000"></path>
            <polyline id="path68" fill="#000000" points="120.662961 46.7855964 120.618795 17.0415349 124.185645 17.0415349 124.231335 46.7855964"></polyline>
            <path d="M159.470205,47.5173947 C153.13912,47.5173947 148.545772,42.4336427 148.545772,36.1452029 C148.545772,29.9039758 153.13912,24.776057 159.470205,24.776057 C162.147627,24.776057 164.776313,25.2222941 167.941094,28.476931 L165.578932,30.7934039 C163.573149,28.5652646 161.789723,27.7626471 159.470205,27.7626471 C155.056569,27.7626471 152.246646,31.5076879 152.246646,36.1452029 C152.246646,40.7842408 155.056569,44.5749715 159.470205,44.5749715 C161.789723,44.5749715 163.573149,43.7266641 165.578932,41.452835 L167.941094,43.8149977 C164.776313,47.0285139 162.147627,47.5173947 159.470205,47.5173947" id="path70" fill="#000000"></path>
            <g id="use72" transform="translate(168.508561, 24.367895)" fill="#000000">
                <path d="M11.8083772,3.24199609 C7.39321927,3.24199609 4.5848194,6.98855991 4.5848194,11.6245519 C4.5848194,16.2635899 7.39321927,20.0527975 11.8083772,20.0527975 C16.266179,20.0527975 19.031935,16.3077566 19.031935,11.6245519 C19.031935,6.98855991 16.266179,3.24199609 11.8083772,3.24199609 M11.8083772,22.9967438 C5.47577055,22.9967438 0.883945382,17.9145147 0.883945382,11.6245519 C0.883945382,5.38484784 5.47577055,0.25692899 11.8083772,0.25692899 C18.1836276,0.25692899 22.7312861,5.38484784 22.7312861,11.6245519 C22.7312861,17.9145147 18.1836276,22.9967438 11.8083772,22.9967438" id="path66"></path>
            </g>
            <path d="M220.357958,46.7855964 L220.357958,32.7390281 C220.357958,29.2589881 218.93396,27.6095863 216.256537,27.6095863 C213.982708,27.6095863 212.244973,29.3945345 211.085974,30.8200563 L211.085974,46.7855964 L207.516077,46.7855964 L207.516077,32.7390281 C207.516077,29.2589881 206.046389,27.6095863 203.414656,27.6095863 C201.09666,27.6095863 199.401569,29.3945345 198.198404,30.8200563 L198.198404,46.7855964 L194.628508,46.7855964 L194.628508,25.2474234 L198.198404,25.2474234 L198.198404,27.9233228 C199.177688,26.7186351 200.962637,24.6229962 204.441155,24.6229962 C207.561768,24.6229962 209.567549,26.048518 210.461546,28.6802506 C211.753046,26.8526585 213.804518,24.6229962 217.327201,24.6229962 C221.696669,24.6229962 223.927855,27.5623734 223.927855,32.7390281 L223.927855,46.7855964" id="path74" fill="#000000"></path>
            <path d="M227.657057,26.1345671 L227.657057,28.8302655 L227.245849,28.8302655 L227.245849,25.7690487 L228.494703,25.7690487 C229.012521,25.7690487 229.469419,26.1345671 229.469419,26.6980747 C229.469419,27.3834217 228.875452,27.5966408 228.692692,27.5966408 L229.515108,28.8302655 L228.99729,28.8302655 L228.205335,27.6118707 L227.535217,27.6118707 L227.535217,27.2463523 L228.494703,27.2463523 C228.753612,27.2463523 229.042981,27.0179033 229.042981,26.6980747 C229.042981,26.3630161 228.753612,26.1345671 228.494703,26.1345671 L227.657057,26.1345671 Z M225.981764,27.2920421 C225.981764,28.5408967 227.002169,29.5765322 228.266254,29.5765322 C229.530339,29.5765322 230.535514,28.5408967 230.535514,27.2920421 C230.535514,26.0127277 229.530339,25.007552 228.266254,25.007552 C227.002169,25.007552 225.981764,26.0127277 225.981764,27.2920421 Z M225.601016,27.2920421 C225.601016,25.7995085 226.788951,24.6268036 228.266254,24.6268036 C229.743558,24.6268036 230.931492,25.7995085 230.931492,27.2920421 C230.931492,28.7541158 229.743558,29.9572805 228.266254,29.9572805 C226.788951,29.9572805 225.601016,28.7541158 225.601016,27.2920421" id="path76" fill="#000000"></path>
        </g>
    </g>
</svg>